<svg width="40" height="40" viewBox="0 0 40 40" fill="none" xmlns="http://www.w3.org/2000/svg">
<path d="M35 29.9999L35 22.0923C30.3678 23.9674 25.3045 24.9999 20 24.9999C14.6955 24.9999 9.63216 23.9674 5 22.0923V29.9999C5 31.8409 6.49238 33.3333 8.33333 33.3333H31.6667C33.5076 33.3333 35 31.8409 35 29.9999Z" fill="#7BC3E4"/>
<path d="M5 29.9999V13.3333C5 11.4923 6.49238 9.99992 8.33333 9.99992H31.6667C33.5076 9.99992 35 11.4923 35 13.3333V29.9999M5 29.9999C5 31.8409 6.49238 33.3333 8.33333 33.3333H31.6667C33.5076 33.3333 35 31.8409 35 29.9999M5 29.9999V22.0923C9.63216 23.9674 14.6955 24.9999 20 24.9999C25.3045 24.9999 30.3678 23.9674 35 22.0923L35 29.9999M26.6667 9.99992V6.66659C26.6667 4.82564 25.1743 3.33325 23.3333 3.33325H16.6667C14.8257 3.33325 13.3333 4.82564 13.3333 6.66659V9.99992M20 19.9999H20.0167" stroke="#21272A" stroke-width="1.5" stroke-linecap="round" stroke-linejoin="round"/>
</svg>
