<svg width="40" height="40" viewBox="0 0 40 40" fill="none" xmlns="http://www.w3.org/2000/svg">
<path d="M28.8427 6.85534L30.3578 3.64259C30.5523 3.23014 31.1143 3.23014 31.3088 3.64259L32.824 6.85534L36.2125 7.37371C36.6473 7.44022 36.8205 7.99954 36.5058 8.32041L34.0543 10.8194L34.6328 14.3499C34.7072 14.8033 34.2525 15.149 33.8635 14.9349L30.8333 13.2671L27.8032 14.9349C27.4142 15.149 26.9595 14.8033 27.0338 14.3499L27.6123 10.8194L25.1608 8.32041C24.8462 7.99954 25.0193 7.44022 25.4542 7.37371L28.8427 6.85534Z" stroke="#00C0E8" stroke-width="2" stroke-linecap="round" stroke-linejoin="round"/>
<path d="M21.6666 3.41555C21.1184 3.36112 20.5624 3.33325 19.9999 3.33325C10.7952 3.33325 3.33325 10.7952 3.33325 19.9999C3.33325 23.0356 4.14487 25.8818 5.56295 28.3333L4.16659 35.8333L11.6666 34.4369C14.118 35.8549 16.9643 36.6666 19.9999 36.6666C29.2046 36.6666 36.6666 29.2046 36.6666 19.9999C36.6666 19.4374 36.6388 18.8814 36.5843 18.3333" stroke="#21272A" stroke-width="2" stroke-linecap="round" stroke-linejoin="round"/>
</svg>
