<svg width="70" height="70" viewBox="0 0 70 70" fill="none" xmlns="http://www.w3.org/2000/svg">
<path d="M26.1232 17.2466H20.2899C18.7428 17.2466 17.259 17.8612 16.1651 18.9551C15.0711 20.0491 14.4565 21.5328 14.4565 23.0799V58.0799C14.4565 59.627 15.0711 61.1107 16.1651 62.2047C17.259 63.2987 18.7428 63.9132 20.2899 63.9132H49.4565C51.0036 63.9132 52.4874 63.2987 53.5813 62.2047C54.6753 61.1107 55.2899 59.627 55.2899 58.0799V23.0799C55.2899 21.5328 54.6753 20.0491 53.5813 18.9551C52.4874 17.8612 51.0036 17.2466 49.4565 17.2466H43.6232" stroke="#48ACDA" stroke-width="4" stroke-linecap="round" stroke-linejoin="round"/>
<path d="M37.7904 11.4131H31.9571C28.7355 11.4131 26.1238 14.0248 26.1238 17.2464C26.1238 20.4681 28.7355 23.0798 31.9571 23.0798H37.7904C41.0121 23.0798 43.6238 20.4681 43.6238 17.2464C43.6238 14.0248 41.0121 11.4131 37.7904 11.4131Z" stroke="#48ACDA" stroke-width="4" stroke-linecap="round" stroke-linejoin="round"/>
<path d="M26.1238 37.6631H26.1529" stroke="#48ACDA" stroke-width="4" stroke-linecap="round" stroke-linejoin="round"/>
<path d="M37.7908 37.6631H43.6241" stroke="#48ACDA" stroke-width="4" stroke-linecap="round" stroke-linejoin="round"/>
<path d="M26.1238 49.3293H26.1529" stroke="#48ACDA" stroke-width="4" stroke-linecap="round" stroke-linejoin="round"/>
<path d="M37.7908 49.3293H43.6241" stroke="#48ACDA" stroke-width="4" stroke-linecap="round" stroke-linejoin="round"/>
</svg>
