<svg width="60" height="60" viewBox="0 0 60 60" fill="none" xmlns="http://www.w3.org/2000/svg">
<path d="M34.986 23.8108C35.7099 24.645 36.9731 24.7345 37.8074 24.0106C38.6417 23.2867 38.7311 22.0235 38.0072 21.1892L36.4966 22.5L34.986 23.8108ZM25.014 36.1892C24.2901 35.355 23.0269 35.2655 22.1927 35.9894C21.3584 36.7133 21.2689 37.9765 21.9928 38.8108L23.5034 37.5L25.014 36.1892ZM32 17.5C32 16.3954 31.1046 15.5 30 15.5C28.8954 15.5 28 16.3954 28 17.5H30H32ZM28 42.5C28 43.6045 28.8954 44.5 30 44.5C31.1045 44.5 32 43.6046 32 42.5L30 42.5L28 42.5ZM52.5 30H50.5C50.5 41.3218 41.3218 50.5 30 50.5V52.5V54.5C43.531 54.5 54.5 43.531 54.5 30H52.5ZM30 52.5V50.5C18.6782 50.5 9.5 41.3218 9.5 30H7.5H5.5C5.5 43.531 16.469 54.5 30 54.5V52.5ZM7.5 30H9.5C9.5 18.6782 18.6782 9.5 30 9.5V7.5V5.5C16.469 5.5 5.5 16.469 5.5 30H7.5ZM30 7.5V9.5C41.3218 9.5 50.5 18.6782 50.5 30H52.5H54.5C54.5 16.469 43.531 5.5 30 5.5V7.5ZM30 30V28C28.2687 28 26.7918 27.5286 25.8061 26.8714C24.8064 26.205 24.5 25.5039 24.5 25H22.5H20.5C20.5 27.2575 21.8725 29.0564 23.5873 30.1996C25.3161 31.3522 27.5892 32 30 32V30ZM22.5 25H24.5C24.5 24.4961 24.8064 23.795 25.8061 23.1286C26.7918 22.4714 28.2687 22 30 22V20V18C27.5892 18 25.3161 18.6478 23.5873 19.8004C21.8725 20.9436 20.5 22.7425 20.5 25H22.5ZM30 20V22C32.3628 22 34.166 22.8657 34.986 23.8108L36.4966 22.5L38.0072 21.1892C36.2337 19.1453 33.1893 18 30 18V20ZM30 30V32C31.7313 32 33.2082 32.4714 34.1939 33.1286C35.1936 33.795 35.5001 34.4961 35.5001 35H37.5001H39.5001C39.5001 32.7425 38.1275 30.9436 36.4127 29.8004C34.6839 28.6478 32.4108 28 30 28V30ZM30 17.5H28V20H30H32V17.5H30ZM30.0001 40L28.0001 40L28 42.5L30 42.5L32 42.5L32.0001 40L30.0001 40ZM30.0001 40L30.0001 38C27.6373 38 25.834 37.1343 25.014 36.1892L23.5034 37.5L21.9928 38.8108C23.7664 40.8547 26.8107 42 30 42L30.0001 40ZM37.5001 35H35.5001C35.5001 35.5039 35.1936 36.205 34.194 36.8714C33.2083 37.5286 31.7313 38 30.0001 38V40V42C32.4109 42 34.684 41.3522 36.4128 40.1996C38.1276 39.0564 39.5001 37.2575 39.5001 35H37.5001ZM30 20L28 20L28.0001 40L30.0001 40L32.0001 40L32 20L30 20Z" fill="#48ACDA"/>
</svg>
