<svg width="54" height="44" viewBox="0 0 54 44" fill="none" xmlns="http://www.w3.org/2000/svg">
<path d="M39.5 42H52V37C52 32.8579 48.6421 29.5 44.5 29.5C42.111 29.5 39.9829 30.617 38.6094 32.3572M39.5 42H14.5M39.5 42V37C39.5 35.3594 39.1839 33.7926 38.6094 32.3572M14.5 42H2V37C2 32.8579 5.35786 29.5 9.5 29.5C11.889 29.5 14.0171 30.617 15.3906 32.3572M14.5 42V37C14.5 35.3594 14.8161 33.7926 15.3906 32.3572M15.3906 32.3572C17.2338 27.7526 21.737 24.5 27 24.5C32.263 24.5 36.7662 27.7526 38.6094 32.3572M34.5 9.5C34.5 13.6421 31.1421 17 27 17C22.8579 17 19.5 13.6421 19.5 9.5C19.5 5.35786 22.8579 2 27 2C31.1421 2 34.5 5.35786 34.5 9.5ZM49.5 17C49.5 19.7614 47.2614 22 44.5 22C41.7386 22 39.5 19.7614 39.5 17C39.5 14.2386 41.7386 12 44.5 12C47.2614 12 49.5 14.2386 49.5 17ZM14.5 17C14.5 19.7614 12.2614 22 9.5 22C6.73858 22 4.5 19.7614 4.5 17C4.5 14.2386 6.73858 12 9.5 12C12.2614 12 14.5 14.2386 14.5 17Z" stroke="#48ACDA" stroke-width="4" stroke-linecap="round" stroke-linejoin="round"/>
</svg>
