<svg width="75" height="75" viewBox="0 0 75 75" fill="none" xmlns="http://www.w3.org/2000/svg">
<g clip-path="url(#clip0_306_869)">
<path d="M45.8344 44.1282C44.9696 45.0236 43.9351 45.7378 42.7913 46.2291C41.6475 46.7204 40.4173 46.9791 39.1725 46.9899C37.9277 47.0007 36.6932 46.7635 35.5411 46.2921C34.3889 45.8207 33.3422 45.1246 32.4619 44.2444C31.5817 43.3641 30.8856 42.3174 30.4142 41.1652C29.9428 40.0131 29.7056 38.7786 29.7164 37.5338C29.7272 36.289 29.9859 35.0588 30.4772 33.915C30.9685 32.7712 31.6827 31.7367 32.5781 30.8719C34.3463 29.1642 36.7144 28.2192 39.1725 28.2406C41.6306 28.2619 43.982 29.2479 45.7202 30.9861C47.4584 32.7243 48.4443 35.0757 48.4657 37.5338C48.4871 39.9919 47.5421 42.36 45.8344 44.1282Z" fill="#00C0E8"/>
<path d="M11.7188 0C9.85395 0 8.06552 0.74079 6.74691 2.05941C5.42829 3.37802 4.6875 5.16645 4.6875 7.03125V14.0625H2.34375C1.72215 14.0625 1.12601 14.3094 0.686468 14.749C0.24693 15.1885 0 15.7846 0 16.4062C0 17.0279 0.24693 17.624 0.686468 18.0635C1.12601 18.5031 1.72215 18.75 2.34375 18.75H4.6875V35.1562H2.34375C1.72215 35.1562 1.12601 35.4032 0.686468 35.8427C0.24693 36.2823 0 36.8784 0 37.5C0 38.1216 0.24693 38.7177 0.686468 39.1573C1.12601 39.5968 1.72215 39.8438 2.34375 39.8438H4.6875V56.25H2.34375C1.72215 56.25 1.12601 56.4969 0.686468 56.9365C0.24693 57.376 0 57.9721 0 58.5938C0 59.2154 0.24693 59.8115 0.686468 60.251C1.12601 60.6906 1.72215 60.9375 2.34375 60.9375H4.6875V67.9688C4.6875 69.8335 5.42829 71.622 6.74691 72.9406C8.06552 74.2592 9.85395 75 11.7188 75H67.9688C69.8335 75 71.622 74.2592 72.9406 72.9406C74.2592 71.622 75 69.8335 75 67.9688V7.03125C75 5.16645 74.2592 3.37802 72.9406 2.05941C71.622 0.74079 69.8335 0 67.9688 0L11.7188 0ZM25.95 20.925L31.0594 26.0344C33.44 24.3449 36.287 23.4373 39.2062 23.4373C42.1255 23.4373 44.9725 24.3449 47.3531 26.0344L52.4625 20.925C52.9026 20.4855 53.4992 20.2389 54.1212 20.2393C54.7431 20.2398 55.3394 20.4872 55.7789 20.9273C56.2184 21.3674 56.465 21.9641 56.4646 22.586C56.4641 23.208 56.2167 23.8043 55.7766 24.2437L50.6672 29.3531C54.1359 34.2141 54.1359 40.7906 50.6672 45.6469L55.7766 50.7562C56.2167 51.1957 56.4641 51.792 56.4646 52.414C56.465 53.0359 56.2184 53.6326 55.7789 54.0727C55.3394 54.5127 54.7431 54.7602 54.1212 54.7607C53.4992 54.7611 52.9026 54.5145 52.4625 54.075L47.3531 48.9656C44.9728 50.6558 42.1256 51.5638 39.2062 51.5638C36.2869 51.5638 33.4397 50.6558 31.0594 48.9656L25.95 54.075C25.7321 54.2929 25.4734 54.4658 25.1887 54.5837C24.904 54.7016 24.5988 54.7623 24.2906 54.7623C23.9825 54.7623 23.6773 54.7016 23.3926 54.5837C23.1079 54.4658 22.8492 54.2929 22.6313 54.075C22.4133 53.8571 22.2405 53.5984 22.1225 53.3137C22.0046 53.029 21.9439 52.7238 21.9439 52.4156C21.9439 52.1075 22.0046 51.8023 22.1225 51.5176C22.2405 51.2329 22.4133 50.9742 22.6313 50.7562L27.7406 45.6469C26.0511 43.2662 25.1435 40.4192 25.1435 37.5C25.1435 34.5808 26.0511 31.7338 27.7406 29.3531L22.6313 24.2437C22.1912 23.8037 21.9439 23.2068 21.9439 22.5844C21.9439 21.962 22.1912 21.3651 22.6313 20.925C23.0713 20.4849 23.6682 20.2377 24.2906 20.2377C24.913 20.2377 25.5099 20.4849 25.95 20.925ZM65.625 30.4688V44.5312C65.625 45.1529 65.3781 45.749 64.9385 46.1885C64.499 46.6281 63.9029 46.875 63.2812 46.875C62.6596 46.875 62.0635 46.6281 61.624 46.1885C61.1844 45.749 60.9375 45.1529 60.9375 44.5312V30.4688C60.9375 29.8471 61.1844 29.251 61.624 28.8115C62.0635 28.3719 62.6596 28.125 63.2812 28.125C63.9029 28.125 64.499 28.3719 64.9385 28.8115C65.3781 29.251 65.625 29.8471 65.625 30.4688Z" fill="#21272A" fill-opacity="0.81"/>
</g>
<defs>
<clipPath id="clip0_306_869">
<rect width="75" height="75" fill="white"/>
</clipPath>
</defs>
</svg>
