<svg width="40" height="40" viewBox="0 0 40 40" fill="none" xmlns="http://www.w3.org/2000/svg">
<path d="M15 11V14C15 14.5523 14.5523 15 14 15H11C10.4477 15 10 14.5523 10 14V11C10 10.4477 10.4477 10 11 10H14C14.5523 10 15 10.4477 15 11Z" stroke="#21272A" stroke-width="1.5" stroke-linecap="round" stroke-linejoin="round"/>
<path d="M10 20H15" stroke="#21272A" stroke-width="2" stroke-linecap="round" stroke-linejoin="round"/>
<path d="M25 20V25" stroke="#21272A" stroke-width="2" stroke-linecap="round" stroke-linejoin="round"/>
<path d="M20 30H25" stroke="#21272A" stroke-width="2" stroke-linecap="round" stroke-linejoin="round"/>
<path d="M20 20.0185L20.0167 20" stroke="#21272A" stroke-width="2" stroke-linecap="round" stroke-linejoin="round"/>
<path d="M30 20.0185L30.0167 20" stroke="#21272A" stroke-width="2" stroke-linecap="round" stroke-linejoin="round"/>
<path d="M20 25.0185L20.0167 25" stroke="#21272A" stroke-width="2" stroke-linecap="round" stroke-linejoin="round"/>
<path d="M30 25.0185L30.0167 25" stroke="#21272A" stroke-width="2" stroke-linecap="round" stroke-linejoin="round"/>
<path d="M30 30.0185L30.0167 30" stroke="#21272A" stroke-width="2" stroke-linecap="round" stroke-linejoin="round"/>
<path d="M20 15.0185L20.0167 15" stroke="#21272A" stroke-width="2" stroke-linecap="round" stroke-linejoin="round"/>
<path d="M20 10.0185L20.0167 10" stroke="#21272A" stroke-width="2" stroke-linecap="round" stroke-linejoin="round"/>
<path d="M15 26V29C15 29.5523 14.5523 30 14 30H11C10.4477 30 10 29.5523 10 29V26C10 25.4477 10.4477 25 11 25H14C14.5523 25 15 25.4477 15 26Z" stroke="#00C0E8" stroke-width="2" stroke-linecap="round" stroke-linejoin="round"/>
<path d="M30 11V14C30 14.5523 29.5523 15 29 15H26C25.4477 15 25 14.5523 25 14V11C25 10.4477 25.4477 10 26 10H29C29.5523 10 30 10.4477 30 11Z" stroke="#00C0E8" stroke-width="2" stroke-linecap="round" stroke-linejoin="round"/>
<path d="M30 5H35V10" stroke="#21272A" stroke-width="2" stroke-linecap="round" stroke-linejoin="round"/>
<path d="M30 35H35V30" stroke="#21272A" stroke-width="2" stroke-linecap="round" stroke-linejoin="round"/>
<path d="M10 5H5V10" stroke="#21272A" stroke-width="2" stroke-linecap="round" stroke-linejoin="round"/>
<path d="M10 35H5V30" stroke="#21272A" stroke-width="2" stroke-linecap="round" stroke-linejoin="round"/>
</svg>
