<svg width="40" height="40" viewBox="0 0 40 40" fill="none" xmlns="http://www.w3.org/2000/svg">
<path d="M20 25C22.7615 25 25 22.7615 25 20C25 17.2385 22.7615 15 20 15C17.2385 15 15 17.2385 15 20C15 22.7615 17.2385 25 20 25Z" stroke="#00C0E8" stroke-width="1.5" stroke-linecap="round" stroke-linejoin="round"/>
<path d="M32.7039 17.3256L30.8744 12.9079L33.3333 9.99992L29.9999 6.66659L27.1078 9.13817L22.5963 7.28282L21.5588 3.33325H18.3016L17.2484 7.33514L12.8406 9.19319L9.99992 6.66659L6.66659 9.99992L9.08887 12.9813L7.28742 17.4104L3.33325 18.3333V21.6666L7.3351 22.7591L9.19284 27.1661L6.66659 29.9999L9.99992 33.3333L12.9852 30.9004L17.3283 32.6871L18.3333 36.6666H21.6666L22.6741 32.6886L27.0918 30.8591C27.8281 31.3854 29.9999 33.3333 29.9999 33.3333L33.3333 29.9999L30.8598 27.0823L32.6897 22.6633L36.6664 21.6286L36.6666 18.3333L32.7039 17.3256Z" stroke="#21272A" stroke-width="1.5" stroke-linecap="round" stroke-linejoin="round"/>
</svg>
