<svg width="40" height="39" viewBox="0 0 40 39" fill="none" xmlns="http://www.w3.org/2000/svg">
<path d="M31.6667 32.5H8.33333C6.49238 32.5 5 31.045 5 29.25V14.625C5 12.8301 6.49238 11.375 8.33333 11.375H31.6667C33.5077 11.375 35 12.8301 35 14.625V29.25C35 31.045 33.5077 32.5 31.6667 32.5Z" stroke="#21272A" stroke-width="2"/>
<path d="M28.6667 22.4333C27.5623 22.4333 26.6667 21.5676 26.6667 20.5C26.6667 19.4324 27.5623 18.5667 28.6667 18.5667C29.7711 18.5667 30.6667 19.4324 30.6667 20.5C30.6667 21.5676 29.7711 22.4333 28.6667 22.4333Z" fill="#00C0E8" stroke="black" stroke-linecap="round" stroke-linejoin="round"/>
<path d="M30 11.3751V9.10529C30 6.96994 27.924 5.41483 25.8078 5.96502L7.47445 10.7317C6.01528 11.1111 5 12.3996 5 13.872V14.6251" stroke="black" stroke-width="2"/>
</svg>
